mtllib ./ExportedObj/jueseCJ_tencent.unity_1.obj.mtl
g SD_xuanren_changjing1
v -121.7333 11.16095 231.6982
v -196.4418 182.2489 -191.9949
v -196.4418 11.16095 -191.9949
v -121.7333 182.2489 231.6982
vn 0.9848077 0 -0.1736482
vn 0.9848077 0 -0.1736482
vn 0.9848077 0 -0.1736482
vn 0.9848077 0 -0.1736482
vt 0.5124635 0.8956034
vt 0.7331283 0.995913
vt 0.7331283 0.8956035
vt 0.5124635 0.9959129
f 2/2/2 1/1/1 3/3/3
f 1/1/1 2/2/2 4/4/4
g SD_xuanren_changjing2
v -39.53941 28.96928 65.71403
v -39.21808 26.33246 72.71371
v -39.17575 28.52869 68.64152
v -49.17836 -1.915843 65.23748
v -42.97212 22.30312 59.33495
v -54.06581 -1.915843 37.5194
v -46.06081 22.64365 41.14944
v -43.39286 23.43307 54.73016
v -46.02396 -1.915843 83.12698
v -35.10736 36.27926 76.64052
v -37.05796 31.88519 74.0617
v -33.5192 38.6734 80.80266
v -49.71108 26.4385 12.97157
v -60.11584 -1.915847 3.207994
v -54.04747 16.51019 6.601762
v -50.49785 26.33975 8.712921
v -53.61217 20.7916 1.960046
v -55.12567 20.7916 -6.62345
v -55.28912 26.80866 -19.36467
v -67.61533 -1.915849 -39.32377
v -57.34735 27.61486 -32.62047
v -65.54436 15.49472 -56.83966
v -74.20771 -1.915849 -76.71096
v -67.70404 20.7916 -77.95892
v -52.41947 31.52973 -12.35978
v -53.79471 30.85385 -18.83205
v -37.52144 52.64883 30.45746
v -38.89598 52.80822 22.40388
vn 0.9404086 -0.2943921 -0.1701912
vn 0.9367884 -0.2982312 -0.1829909
vn 0.9321168 -0.322714 -0.164359
vn 0.9432599 -0.2862486 -0.1682931
vn 0.9395574 -0.2883834 -0.1845721
vn 0.9442695 -0.2849888 -0.1647315
vn 0.9414384 -0.2947917 -0.1636811
vn 0.9321182 -0.3227109 -0.1643575
vn 0.9410513 -0.2907923 -0.1728075
vn 0.934867 -0.301046 -0.1881357
vn 0.9332542 -0.3269074 -0.14889
vn 0.9361077 -0.2990024 -0.1852027
vn 0.9388072 -0.3009069 -0.1676192
vn 0.9439846 -0.2847286 -0.1668018
vn 0.941083 -0.2753735 -0.1962964
vn 0.9383246 -0.3031229 -0.1663231
vn 0.9452595 -0.2799478 -0.1676716
vn 0.9476829 -0.2811052 -0.1512518
vn 0.9397132 -0.3010299 -0.1622342
vn 0.9430906 -0.2864854 -0.1688384
vn 0.9423675 -0.2896518 -0.1674678
vn 0.9441476 -0.2826395 -0.1694115
vn 0.9453864 -0.280039 -0.1668016
vn 0.9453988 -0.2799446 -0.1668897
vn 0.9321183 -0.3227105 -0.1643576
vn 0.9321184 -0.3227101 -0.1643579
vn 0.9318031 -0.3233457 -0.1648958
vn 0.931828 -0.3230001 -0.1654312
vt 0.4221396 0.5953809
vt 0.3947996 0.5829698
vt 0.4105485 0.5933069
vt 0.4305789 0.4512508
vt 0.4492005 0.5640041
vt 0.541204 0.4512508
vt 0.5217709 0.565607
vt 0.4673294 0.5693225
vt 0.3593369 0.4512508
vt 0.3772271 0.629263
vt 0.3881011 0.6091055
vt 0.3593343 0.6410567
vt 0.6334576 0.5835484
vt 0.6783636 0.4512508
vt 0.6610828 0.5370094
vt 0.6504888 0.5830537
vt 0.6787699 0.5568894
vt 0.7130608 0.5568894
vt 0.7625384 0.5852109
vt 0.8482544 0.4512508
vt 0.8153045 0.5890056
vt 0.9147419 0.5322782
vt 0.9978188 0.4512508
vt 0.9978484 0.5568894
vt 0.7334372 0.6074325
vt 0.7594538 0.6042513
vt 0.557466 0.7073258
vt 0.5895817 0.7079467
f 6/6/6 5/5/5 7/7/7
f 8/8/8 5/5/5 6/6/6
f 8/8/8 9/9/9 5/5/5
f 9/9/9 8/8/8 10/10/10
f 9/9/9 10/10/10 11/11/11
f 9/9/9 11/11/11 12/12/12
f 8/8/8 6/6/6 13/13/13
f 13/13/13 6/6/6 14/14/14
f 14/14/14 6/6/6 15/15/15
f 13/13/13 14/14/14 16/16/16
f 10/10/10 17/17/17 11/11/11
f 18/18/18 17/17/17 10/10/10
f 19/19/19 17/17/17 18/18/18
f 19/19/19 20/20/20 17/17/17
f 18/18/18 21/21/21 19/19/19
f 21/21/21 18/18/18 22/22/22
f 18/18/18 23/23/23 22/22/22
f 23/23/23 18/18/18 24/24/24
f 24/24/24 25/25/25 23/23/23
f 25/25/25 24/24/24 26/26/26
f 27/27/27 26/26/26 24/24/24
f 26/26/26 27/27/27 28/28/28
f 23/23/23 29/29/29 22/22/22
f 29/29/29 23/23/23 30/30/30
f 31/31/31 17/17/17 32/32/32
f 17/17/17 31/31/31 11/11/11
